<?xml version="1.0" standalone="no"?>
<!DOCTYPE svg PUBLIC "-//W3C//DTD SVG 20010904//EN"
 "http://www.w3.org/TR/2001/REC-SVG-20010904/DTD/svg10.dtd">
<svg version="1.0" xmlns="http://www.w3.org/2000/svg"
 width="308.000000pt" height="308.000000pt" viewBox="0 0 308.000000 308.000000"
 preserveAspectRatio="xMidYMid meet">
<metadata>
Created by potrace 1.14, written by Peter Selinger 2001-2017
</metadata>
<g transform="translate(0.000000,308.000000) scale(0.100000,-0.100000)"
fill="#000000" stroke="none">
<path d="M1182 3068 c-104 -16 -200 -85 -248 -179 l-24 -48 -37 16 c-22 9 -66
16 -106 15 -166 0 -301 -134 -306 -304 -1 -22 -12 -34 -53 -61 -58 -37 -99
-89 -121 -152 -17 -49 -13 -142 8 -192 l15 -36 -55 -54 c-57 -56 -90 -108
-101 -164 -10 -51 -6 -123 10 -171 l15 -42 -35 -35 c-19 -19 -46 -60 -61 -90
-22 -46 -27 -71 -27 -141 -1 -72 3 -94 25 -140 14 -30 42 -71 61 -92 l36 -36
-39 -36 c-81 -78 -117 -210 -83 -311 32 -92 152 -183 249 -188 30 -2 34 -5 28
-22 -41 -127 -10 -252 82 -333 89 -78 237 -95 344 -39 29 15 54 27 56 27 1 0
6 -12 9 -26 9 -36 49 -96 92 -140 166 -165 506 -93 617 131 33 65 46 146 45
273 0 57 2 105 4 107 2 2 60 -7 129 -21 68 -14 132 -26 142 -27 9 -1 17 -5 17
-10 0 -4 11 -19 25 -33 41 -41 104 -13 105 47 0 52 -61 76 -108 43 -21 -15
-34 -14 -168 11 l-144 27 -1 32 c-1 47 -1 788 0 809 1 15 16 17 171 17 138 0
172 -3 176 -14 3 -8 18 -19 34 -26 66 -27 120 50 70 100 -26 26 -65 25 -92 -2
-22 -22 -30 -23 -190 -23 l-168 -1 0 26 c-3 154 -2 891 1 894 2 2 75 22 163
43 157 39 159 40 193 22 32 -16 39 -17 64 -4 32 17 39 38 26 78 -16 48 -108
48 -115 0 -3 -20 -34 -31 -232 -78 -91 -21 -100 -22 -101 -11 -1 6 -2 31 -3
56 -1 44 -1 44 -36 45 l-35 0 -2 -64 c-1 -35 -4 -65 -6 -67 -2 -2 -86 -24
-187 -49 -172 -43 -184 -45 -194 -28 -17 32 -66 71 -94 78 -25 5 -28 10 -27
40 0 20 9 43 23 58 50 53 4 132 -62 107 -48 -18 -57 -78 -16 -107 14 -10 20
-25 20 -52 0 -33 -4 -38 -33 -49 -54 -20 -89 -64 -95 -120 -2 -27 1 -59 7 -71
l12 -21 -246 0 -247 0 3 38 c6 71 60 136 141 166 l43 17 -2 61 c-6 216 216
323 395 191 21 -16 32 -20 33 -11 4 66 32 136 74 186 28 34 83 68 93 58 3 -3
5 -85 5 -181 0 -97 3 -178 8 -181 5 -3 9 79 9 184 0 196 1 202 41 202 5 0 9
-70 9 -160 0 -88 4 -160 8 -160 5 0 9 71 9 158 l-1 157 25 0 c26 0 25 12 28
-218 1 -27 5 -46 9 -43 5 3 8 62 8 131 -2 125 1 136 34 115 11 -7 15 -31 15
-94 1 -47 4 -88 8 -92 8 -8 9 12 8 104 -1 34 3 62 8 62 5 0 23 -11 39 -25 l29
-24 29 30 28 30 -29 25 c-75 63 -188 96 -283 82z m-192 -448 c0 -5 -4 -10 -10
-10 -5 0 -10 5 -10 10 0 6 5 10 10 10 6 0 10 -4 10 -10z m951 -53 c-10 -9 -11
-8 -5 6 3 10 9 15 12 12 3 -3 0 -11 -7 -18z m39 3 c0 -5 -4 -10 -10 -10 -5 0
-10 5 -10 10 0 6 5 10 10 10 6 0 10 -4 10 -10z m-935 -164 c23 -19 28 -31 29
-70 1 -42 -3 -51 -29 -72 -44 -35 -98 -33 -136 5 -53 54 -38 125 34 156 36 15
66 9 102 -19z m456 -237 c-1 -145 -4 -265 -7 -268 -3 -3 -60 -6 -127 -7 l-122
-2 -50 52 c-28 28 -82 80 -121 116 -53 50 -70 72 -72 96 -3 27 1 33 22 38 42
10 95 71 102 116 4 22 12 40 18 41 16 1 36 6 201 47 83 21 152 37 153 36 2 -1
3 -121 3 -265z m-598 29 c34 -33 46 -52 49 -80 2 -21 2 -38 -2 -38 -3 0 -31
25 -63 54 l-57 54 -226 -1 c-185 0 -227 2 -235 14 -24 38 -17 39 240 39 l249
0 45 -42z m-20 -82 c42 -38 61 -64 67 -90 4 -20 5 -36 1 -36 -3 0 -37 29 -75
65 l-68 65 -198 0 -198 0 -16 25 -16 25 222 0 223 0 58 -54z m-4 -86 c64 -59
71 -69 71 -103 l0 -38 -80 78 -80 78 -213 5 c-164 4 -205 7 -179 15 18 6 32
15 30 20 -3 10 347 24 368 15 7 -3 44 -34 83 -70z m258 -55 c51 -49 99 -92
108 -95 8 -3 69 -5 135 -4 l120 2 0 -29 0 -29 -142 0 -143 1 -106 102 c-97 93
-106 105 -107 141 l-1 39 22 -19 c12 -11 63 -59 114 -109z m-271 -26 c79 -79
85 -88 82 -121 l-3 -36 -103 99 -103 99 -227 0 -227 1 25 22 c25 21 32 22 248
21 l223 0 85 -85z m249 -54 l97 -90 142 0 141 -1 0 -24 0 -24 -153 1 -154 0
-51 49 c-134 128 -137 131 -137 159 0 14 4 25 9 23 5 -1 52 -43 106 -93z
m-390 76 c16 -2 224 -205 226 -221 1 -8 1 -31 0 -52 -1 -30 -6 -38 -28 -46
-16 -5 -37 -19 -48 -30 -20 -19 -20 -19 -137 100 -81 83 -121 118 -130 112
-10 -6 -10 -5 -2 7 22 28 23 48 3 73 -25 32 -71 34 -99 6 -41 -41 -12 -100 49
-100 35 0 46 -8 157 -123 l119 -122 -3 -50 c-4 -61 25 -111 81 -138 35 -18 37
-21 37 -65 0 -42 -4 -49 -57 -100 -32 -30 -83 -78 -114 -107 l-56 -54 -66 1
c-58 1 -69 4 -92 28 -16 17 -22 30 -16 34 12 8 6 46 -11 62 -38 37 -98 19
-113 -33 -9 -32 37 -77 71 -70 13 2 29 -1 34 -8 8 -10 -25 -13 -160 -12 -120
0 -170 3 -167 11 2 6 34 26 72 45 60 30 66 36 50 45 -69 41 -114 77 -142 114
-55 72 -55 72 127 72 92 0 160 4 160 9 0 6 -60 10 -137 10 -217 0 -198 -3
-201 31 -3 34 -19 31 165 33 56 1 105 5 109 10 4 4 -56 7 -134 7 -78 0 -142 2
-142 4 0 3 4 16 10 30 l10 26 180 0 c99 0 180 4 180 8 0 5 -77 8 -171 8 -94
-1 -173 2 -175 6 -3 4 -1 16 5 25 8 16 23 18 120 17 62 -1 114 3 117 7 3 5
-42 9 -100 9 -58 0 -106 3 -106 7 0 4 12 18 27 30 24 21 36 23 130 23 62 0
103 4 103 10 0 6 -34 10 -82 10 -75 1 -85 3 -100 24 -32 44 -46 93 -44 152 3
70 18 112 45 122 15 5 383 8 446 3z m373 -151 l83 -80 160 0 159 0 0 -25 0
-25 -170 0 -170 0 -78 75 c-63 60 -79 81 -80 105 0 17 2 30 6 30 4 0 44 -36
90 -80z m-528 60 c0 -5 -4 -10 -10 -10 -5 0 -10 5 -10 10 0 6 5 10 10 10 6 0
10 -4 10 -10z m515 -140 l69 -70 174 0 c173 0 173 0 170 -22 -3 -22 -5 -22
-191 -23 l-188 0 -60 61 c-51 51 -59 65 -57 92 1 18 5 32 8 32 3 0 37 -31 75
-70z m-24 -80 l54 -50 193 0 193 0 -3 -37 -3 -38 -182 -1 -183 -1 -10 32 c-12
36 -40 65 -87 89 -21 10 -33 24 -33 36 0 11 1 20 3 20 2 0 28 -22 58 -50z
m-22 -68 c54 -40 50 -121 -8 -155 -45 -26 -88 -22 -122 12 -50 50 -39 124 23
154 37 18 74 14 107 -11z m924 -67 c-3 -9 -8 -14 -10 -11 -3 3 -2 9 2 15 9 16
15 13 8 -4z m32 -5 c3 -5 1 -10 -4 -10 -6 0 -11 5 -11 10 0 6 2 10 4 10 3 0 8
-4 11 -10z m-495 -55 l0 -35 -189 0 c-104 0 -198 -3 -208 -7 -17 -6 -17 -5 -2
13 9 10 20 29 23 42 7 22 9 22 192 22 l184 0 0 -35z m-415 -63 c-6 -4 -27 -23
-48 -42 -36 -32 -38 -33 -35 -12 1 12 5 21 8 20 3 -2 19 7 35 19 27 20 63 34
40 15z m415 -12 c0 -23 15 -21 -199 -22 l-148 -1 -73 -68 c-40 -38 -74 -69
-76 -69 -2 0 -4 17 -4 37 0 31 8 44 57 90 l58 53 192 0 c186 0 193 -1 193 -20z
m0 -65 c0 -28 16 -26 -194 -26 l-130 0 -81 -80 c-45 -43 -84 -79 -88 -79 -4 0
-7 15 -6 33 1 27 14 44 79 105 l79 72 170 0 171 0 0 -25z m0 -70 l0 -25 -151
0 -151 0 -28 -27 c-87 -87 -159 -153 -164 -153 -3 0 -6 13 -6 29 0 23 18 45
91 115 l92 86 158 0 159 0 0 -25z m-640 -167 c-90 -85 -91 -86 -143 -87 -50 0
-97 19 -97 39 0 6 22 8 51 6 58 -4 65 2 199 132 l75 72 3 -37 c3 -36 -1 -42
-88 -125z m640 100 l0 -28 -134 0 -134 0 -113 -111 -114 -110 -3 38 c-3 36 0
42 102 138 l105 100 146 0 145 0 0 -27z m-989 -25 c13 -16 12 -17 -3 -4 -10 7
-18 15 -18 17 0 8 8 3 21 -13z m-11 -23 c0 -5 -2 -10 -4 -10 -3 0 -8 5 -11 10
-3 6 -1 10 4 10 6 0 11 -4 11 -10z m448 -70 l0 -80 -61 -60 c-34 -33 -69 -60
-78 -60 -8 0 -26 12 -40 26 l-24 27 23 -6 c18 -4 34 4 64 31 88 79 111 102
105 109 -4 3 -38 -24 -76 -60 -55 -51 -76 -65 -98 -64 -25 2 -83 36 -83 49 0
3 21 4 47 3 46 -2 48 -1 132 81 47 46 87 84 88 84 1 0 1 -36 1 -80z m549 -170
c-1 -132 -2 -240 -3 -240 -1 0 -70 13 -154 30 -84 16 -160 30 -169 30 -27 0
-40 14 -46 49 -8 48 -39 86 -85 108 -22 10 -40 22 -40 27 0 6 53 60 118 122
l117 113 132 1 131 0 -1 -240z m-919 130 c12 -8 22 -18 22 -21 0 -4 -101 -7
-225 -8 -124 0 -225 2 -225 6 0 3 7 14 15 23 12 14 41 16 202 15 146 -1 193
-4 211 -15z m71 -64 c12 -11 21 -22 21 -26 0 -3 -121 -6 -270 -6 -250 0 -270
1 -270 18 0 9 6 21 14 25 8 4 120 8 249 8 217 0 237 -2 256 -19z m301 -40 c0
-29 -5 -36 -30 -44 -16 -6 -37 -20 -47 -31 -19 -23 -43 -28 -43 -9 0 12 99
115 113 117 4 1 7 -14 7 -33z m-231 -30 c12 -11 21 -22 21 -25 0 -3 -138 -4
-307 -1 -265 4 -308 7 -309 20 0 8 1 18 3 21 1 3 130 6 287 5 264 -1 285 -2
305 -20z m74 -69 c15 -12 27 -25 27 -28 0 -3 -127 -4 -282 -3 -414 2 -383 0
-396 29 l-12 25 319 0 c317 0 318 0 344 -23z m251 -12 c69 -64 23 -165 -73
-165 -37 0 -89 44 -95 80 -5 34 10 70 37 89 47 34 92 32 131 -4z m-216 -80 c8
-100 118 -162 211 -121 21 10 44 27 52 38 34 48 28 47 127 27 52 -10 108 -20
125 -23 18 -3 43 -8 57 -11 14 -3 39 -8 57 -11 17 -3 33 -11 36 -17 2 -7 3
-70 2 -142 -2 -106 -6 -140 -23 -185 -20 -51 -69 -120 -85 -120 -4 0 -7 33 -7
74 0 42 -5 78 -11 81 -7 5 -10 -22 -8 -86 2 -89 1 -92 -23 -105 l-26 -13 0
117 c0 143 0 144 -10 138 -4 -2 -7 -59 -7 -127 1 -124 -6 -149 -40 -149 -11 0
-14 28 -14 143 1 190 0 199 -9 193 -4 -2 -7 -81 -7 -175 0 -127 -3 -171 -11
-171 -7 0 -18 -2 -26 -5 -11 -4 -12 33 -10 205 2 140 -1 210 -8 210 -6 0 -10
-71 -10 -210 0 -116 -2 -210 -4 -210 -2 0 -27 5 -57 10 -66 13 -119 47 -159
102 -32 44 -68 145 -72 203 -1 19 -4 35 -6 35 -2 0 -25 -23 -50 -52 -101 -111
-250 -130 -348 -42 -59 52 -84 170 -52 244 8 19 39 64 68 99 36 42 47 62 34
58 -53 -17 -153 -33 -184 -30 -45 5 -108 28 -139 52 -25 19 -20 19 304 18
l329 -2 4 -40z m1090 -165 c-7 -10 -14 -17 -17 -15 -4 4 18 35 25 35 2 0 -1
-9 -8 -20z m43 3 c13 -16 12 -17 -3 -4 -17 13 -22 21 -14 21 2 0 10 -8 17 -17z
m-16 -13 c3 -5 1 -10 -4 -10 -6 0 -11 5 -11 10 0 6 2 10 4 10 3 0 8 -4 11 -10z"/>
<path d="M940 2370 c-23 -23 -25 -40 -7 -63 32 -42 97 -24 97 28 0 51 -54 71
-90 35z"/>
<path d="M935 1550 c-23 -25 -13 -67 20 -82 52 -23 100 46 59 86 -21 22 -57
20 -79 -4z"/>
<path d="M942 784 c-30 -21 -29 -59 4 -81 24 -15 29 -15 53 -2 32 18 39 54 15
80 -21 23 -42 24 -72 3z"/>
<path d="M1730 3062 c-71 -27 -104 -48 -144 -93 -53 -57 -85 -132 -89 -206 -4
-59 -3 -61 22 -65 52 -7 59 -1 59 53 1 88 59 175 147 222 55 29 154 28 211 -1
77 -39 122 -97 144 -185 l12 -46 61 31 c181 92 377 -38 353 -235 l-6 -53 53
-17 c98 -31 161 -108 170 -207 4 -42 -22 -119 -56 -164 l-25 -32 49 -18 c57
-19 102 -73 120 -139 11 -43 6 -160 -10 -213 -8 -30 -7 -33 42 -65 31 -20 64
-54 81 -82 54 -88 35 -216 -42 -285 -15 -13 -58 -39 -97 -56 l-70 -33 49 -21
c27 -12 52 -22 55 -22 4 0 26 -16 48 -35 124 -106 105 -285 -39 -359 -76 -38
-138 -38 -272 1 -12 3 -2 -15 32 -60 90 -118 104 -206 46 -290 -80 -114 -255
-118 -367 -9 -42 41 -50 37 -62 -27 -16 -86 -102 -203 -180 -244 -78 -42 -237
-25 -353 38 l-42 24 -20 -38 -19 -38 67 -31 c256 -117 477 -58 582 156 13 26
24 48 25 50 2 2 20 -6 42 -17 196 -103 443 31 443 238 0 25 -4 62 -10 81 -12
43 -12 55 -2 56 85 6 164 46 221 110 98 111 93 285 -9 393 l-41 42 45 50 c116
129 110 314 -14 436 l-44 43 0 117 c-1 104 -4 124 -25 166 -13 27 -41 66 -62
87 l-39 39 16 36 c57 137 -17 317 -157 380 -32 15 -36 21 -37 57 -6 132 -100
254 -225 290 -52 15 -167 14 -195 -1 -18 -10 -23 -7 -43 27 -29 48 -85 108
-127 134 -75 46 -192 59 -272 30z"/>
<path d="M2166 2664 c-4 -10 7 -31 29 -57 114 -133 116 -266 4 -378 -33 -33
-38 -43 -29 -59 10 -18 13 -19 33 -5 55 36 112 124 125 192 10 55 -4 139 -30
189 -27 49 -97 134 -112 134 -8 0 -17 -7 -20 -16z"/>
<path d="M2313 1729 c-18 -18 -17 -21 18 -65 18 -22 45 -66 60 -99 51 -105 34
-196 -52 -290 -40 -43 -41 -47 -26 -63 16 -15 20 -13 61 27 25 24 57 71 71
104 24 51 27 70 23 126 -6 81 -42 162 -101 226 -34 38 -44 44 -54 34z"/>
<path d="M2045 970 c-17 -18 -16 -21 19 -62 115 -134 117 -277 6 -388 -33 -33
-39 -44 -29 -56 18 -22 30 -17 73 29 123 132 117 294 -17 455 -34 40 -35 41
-52 22z"/>
</g>
</svg>
